<?xml version="1.0" standalone="no"?>
<!DOCTYPE svg PUBLIC "-//W3C//DTD SVG 20010904//EN"
 "http://www.w3.org/TR/2001/REC-SVG-20010904/DTD/svg10.dtd">
<svg version="1.0" xmlns="http://www.w3.org/2000/svg"
 width="170.000000pt" height="89.000000pt" viewBox="0 0 170.000000 89.000000"
 preserveAspectRatio="xMidYMid meet">

<g transform="translate(0.000000,89.000000) scale(0.100000,-0.100000)"
fill="#000000" stroke="none">
<path d="M190 661 c-8 -11 -41 -51 -74 -90 -32 -40 -57 -74 -54 -76 5 -6 90
56 147 108 44 40 51 70 16 74 -11 2 -27 -6 -35 -16z"/>
<path d="M76 615 c-21 -25 -34 -45 -30 -45 12 0 94 71 94 81 0 22 -31 5 -64
-36z"/>
<path d="M204 548 c-97 -115 -129 -158 -102 -142 84 50 248 191 248 213 0 20
-19 41 -37 41 -7 0 -56 -51 -109 -112z"/>
<path d="M620 643 c0 -3 14 -30 30 -60 20 -34 30 -67 30 -93 0 -33 3 -40 20
-40 17 0 20 7 20 40 0 25 11 63 30 100 29 58 30 60 9 60 -14 0 -25 -11 -37
-40 -9 -22 -19 -40 -22 -40 -3 0 -13 18 -22 40 -12 28 -23 40 -37 40 -12 0
-21 -3 -21 -7z"/>
<path d="M830 566 c0 -76 2 -86 22 -100 12 -9 36 -16 53 -16 17 0 41 7 53 16
20 14 22 24 22 100 0 77 -2 84 -20 84 -18 0 -20 -7 -20 -79 0 -64 -3 -80 -16
-85 -25 -10 -54 3 -55 25 -1 10 -3 24 -4 29 -1 6 -3 33 -4 60 -1 37 -5 50 -16
50 -12 0 -15 -16 -15 -84z"/>
<path d="M1100 564 c0 -83 -1 -85 -22 -82 -15 2 -24 11 -26 26 -5 33 -32 28
-32 -6 0 -38 17 -52 62 -52 49 0 58 18 58 119 0 74 -2 81 -20 81 -18 0 -20 -7
-20 -86z"/>
<path d="M1200 550 c0 -93 1 -100 20 -100 19 0 20 7 20 100 0 93 -1 100 -20
100 -19 0 -20 -7 -20 -100z"/>
<path d="M1292 553 c3 -83 6 -98 20 -101 15 -3 18 7 20 70 l3 73 40 -72 c26
-47 46 -73 58 -73 15 0 17 11 17 100 0 81 -3 100 -15 100 -11 0 -15 -16 -17
-67 l-3 -68 -38 68 c-31 54 -43 67 -63 67 l-25 0 3 -97z"/>
<path d="M320 553 c-28 -32 -79 -94 -113 -138 -51 -66 -57 -77 -32 -61 94 59
255 195 255 216 0 21 -19 40 -41 40 -10 0 -41 -26 -69 -57z"/>
<path d="M387 498 c-55 -59 -170 -208 -165 -213 11 -11 258 192 258 213 0 14
-28 42 -42 42 -6 0 -29 -19 -51 -42z"/>
<path d="M420 398 c-78 -90 -123 -148 -115 -148 9 0 56 33 138 98 52 41 67 59
65 75 -6 41 -40 31 -88 -25z"/>
<path d="M686 347 c-22 -16 -18 -65 7 -81 40 -25 80 52 41 81 -10 7 -21 13
-24 13 -3 0 -14 -6 -24 -13z m49 -27 c8 -25 -1 -40 -25 -40 -20 0 -32 22 -24
45 9 22 42 18 49 -5z"/>
<path d="M918 352 c-14 -3 -18 -14 -18 -48 0 -44 0 -44 35 -44 19 0 35 5 35
10 0 6 -11 10 -25 10 -14 0 -25 5 -25 10 0 6 9 10 20 10 11 0 20 5 20 10 0 6
-9 10 -20 10 -30 0 -24 18 8 22 22 3 24 4 7 9 -11 3 -28 3 -37 1z"/>
<path d="M1143 353 c-23 -9 -15 -42 12 -49 14 -3 25 -12 25 -20 0 -17 -22 -18
-39 -1 -11 10 -13 9 -9 -3 7 -22 57 -25 65 -4 4 12 0 21 -11 28 -10 6 -25 17
-34 24 -15 12 -12 13 17 8 29 -5 32 -4 21 9 -13 15 -25 17 -47 8z"/>
<path d="M1221 355 c0 -5 6 -19 14 -29 8 -11 15 -30 15 -43 0 -13 5 -23 10
-23 6 0 10 9 10 21 0 11 5 29 11 40 6 11 8 25 5 32 -2 7 -8 2 -11 -10 -4 -13
-9 -23 -12 -23 -3 0 -13 10 -24 23 -10 12 -18 18 -18 12z"/>
<path d="M1333 353 c-23 -9 -15 -42 12 -49 26 -6 32 -18 15 -29 -6 -4 -18 -1
-27 7 -14 11 -16 11 -11 -2 7 -21 42 -24 58 -4 12 14 12 18 -5 30 -10 8 -25
14 -32 14 -7 0 -13 5 -13 11 0 7 10 9 25 7 28 -6 34 6 9 16 -9 3 -16 6 -17 5
-1 0 -8 -3 -14 -6z"/>
<path d="M1414 348 c-3 -4 1 -8 9 -8 11 0 14 -9 12 -35 -2 -19 1 -37 6 -40 5
-4 9 12 9 34 0 30 4 40 18 43 10 3 3 6 -16 9 -18 3 -35 2 -38 -3z"/>
<path d="M1528 352 c-26 -3 -28 -7 -28 -48 0 -44 0 -44 35 -44 19 0 35 5 35
10 0 6 -11 10 -25 10 -14 0 -25 5 -25 10 0 6 9 10 20 10 11 0 20 5 20 10 0 6
-9 10 -20 10 -30 0 -24 18 8 22 15 2 23 5 17 8 -5 3 -22 4 -37 2z"/>
<path d="M580 306 c0 -25 5 -46 10 -46 6 0 10 9 10 19 0 13 8 21 23 23 14 2
22 10 22 23 0 15 -8 21 -32 23 -33 3 -33 3 -33 -42z m50 19 c0 -8 -7 -15 -15
-15 -8 0 -15 7 -15 15 0 8 7 15 15 15 8 0 15 -7 15 -15z"/>
<path d="M770 344 c0 -17 24 -84 30 -84 4 0 11 15 17 33 l10 32 7 -32 c9 -40
22 -42 30 -5 4 15 9 35 12 45 3 9 1 17 -5 17 -6 0 -11 -9 -11 -19 0 -11 -4
-23 -10 -26 -6 -4 -10 5 -10 19 0 16 -6 26 -15 26 -9 0 -15 -9 -15 -25 0 -14
-4 -25 -10 -25 -5 0 -10 11 -10 25 0 14 -4 25 -10 25 -5 0 -10 -3 -10 -6z"/>
<path d="M990 304 c0 -27 4 -43 10 -39 6 3 10 13 10 21 0 8 7 14 15 14 8 0 15
-6 15 -14 0 -8 4 -17 9 -20 5 -4 9 14 9 39 0 45 0 45 -34 45 -34 0 -34 0 -34
-46z m53 21 c1 -5 -6 -11 -15 -13 -11 -2 -18 3 -18 13 0 17 30 18 33 0z"/>
<path d="M1591 303 c2 -46 2 -46 8 -13 l7 35 8 -32 c4 -18 11 -33 16 -33 5 0
12 15 16 33 l8 32 7 -35 c6 -33 6 -32 8 13 1 35 -3 47 -11 45 -7 -3 -14 -14
-16 -26 -5 -30 -22 -28 -22 3 0 16 -6 25 -15 25 -11 0 -15 -11 -14 -47z"/>
<path d="M431 283 c-22 -26 -38 -49 -36 -52 6 -5 95 68 95 79 0 25 -23 15 -59
-27z"/>
</g>
</svg>
